<svg width="47" height="47" viewBox="0 0 47 47" fill="#BDBDBD" xmlns="http://www.w3.org/2000/svg">
<g clip-path="url(#clip0_56_3)">
<path d="M46.6491 21.8961C44.7571 17.7929 41.9859 14.1559 38.5318 11.2428L44.4695 5.30514L41.6984 2.53214L35.2496 8.97505C31.6803 6.91042 27.6229 5.83995 23.4996 5.87501C8.81215 5.87501 2.0696 18.1361 0.350187 21.8961C0.119374 22.4 -0.000102997 22.9477 -0.000102997 23.502C-0.000102997 24.0562 0.119374 24.6039 0.350187 25.1078C2.2422 29.2111 5.01341 32.8481 8.46748 35.7611L2.53177 41.6988L5.30085 44.4679L11.7496 38.025C15.319 40.0896 19.3763 41.1601 23.4996 41.125C38.1871 41.125 44.9297 28.8639 46.6491 25.1039C46.8795 24.6006 46.9987 24.0535 46.9987 23.5C46.9987 22.9465 46.8795 22.3995 46.6491 21.8961V21.8961ZM3.91631 23.5216C5.38506 20.3001 11.1484 9.79168 23.4996 9.79168C26.5734 9.77371 29.607 10.4908 32.3474 11.8832L28.8909 15.3396C27.0108 14.0914 24.7567 13.5321 22.5111 13.7566C20.2656 13.9811 18.1668 14.9757 16.5711 16.5714C14.9753 18.1672 13.9808 20.2659 13.7562 22.5115C13.5317 24.7571 14.091 27.0112 15.3393 28.8913L11.2679 32.9627C8.13529 30.4117 5.62177 27.1838 3.91631 23.5216V23.5216ZM29.3746 23.5C29.3746 25.0582 28.7557 26.5525 27.6539 27.6543C26.5521 28.756 25.0578 29.375 23.4996 29.375C22.6272 29.3716 21.7669 29.1708 20.9832 28.7875L28.7871 20.9836C29.1704 21.7673 29.3713 22.6276 29.3746 23.5V23.5ZM17.6246 23.5C17.6246 21.9419 18.2436 20.4475 19.3454 19.3458C20.4472 18.244 21.9415 17.625 23.4996 17.625C24.3721 17.6284 25.2324 17.8292 26.0161 18.2125L18.2121 26.0165C17.8289 25.2327 17.628 24.3724 17.6246 23.5ZM23.4996 37.2083C20.4259 37.2263 17.3923 36.5092 14.6519 35.1168L18.1084 31.6604C19.9885 32.9086 22.2426 33.4679 24.4881 33.2434C26.7337 33.0189 28.8325 32.0244 30.4282 30.4286C32.024 28.8328 33.0185 26.7341 33.243 24.4885C33.4676 22.2429 32.9083 19.9888 31.66 18.1087L35.7294 14.0393C38.8682 16.5926 41.3832 19.8282 43.083 23.5C41.5868 26.745 35.8215 37.2083 23.4996 37.2083Z"/>
</g>
<defs>
<clipPath id="clip0_56_3">
<rect width="47" height="47" fill="white"/>
</clipPath>
</defs>
</svg>
